<svg width="289" height="428" viewBox="0 0 289 428" fill="none" xmlns="http://www.w3.org/2000/svg">
<ellipse cx="143" cy="297" rx="101" ry="123" fill="black"/>
<ellipse cx="208.5" cy="38" rx="35.5" ry="38" fill="black"/>
<ellipse cx="76.5" cy="38" rx="35.5" ry="38" fill="black"/>
<path d="M142.5 15.5C197.186 15.5 241.5 58.9379 241.5 112.5C241.5 166.062 197.186 209.5 142.5 209.5C87.8142 209.5 43.5 166.062 43.5 112.5C43.5 58.9379 87.8142 15.5 142.5 15.5Z" fill="white" stroke="white"/>
<path d="M109.112 114.885L109.058 114.968C108.077 115.784 107.596 116.105 107.025 116.348C101.704 116.911 93.9949 116.586 87.9351 115.937C77.0905 115.614 69.4444 114.675 67.2611 113.418C61.7648 110.256 57.4232 108.036 56.3486 103.946C55.6248 101.192 56.026 98.5226 57.5727 94.3913C59.0348 90.4858 60.1856 86.2596 61.0531 83.7872C62.1048 80.79 63.6856 75.7161 74.0278 69.858C77.0079 68.17 79.6017 66.3173 84.2481 64.2669C90.4731 61.52 95.0365 58.6447 98.8209 58.4548C105.211 58.1342 111.568 57.289 114.421 59.2757C118.628 62.2049 122.591 67.5165 123.636 73.1369C124.282 76.6125 125.829 82.8165 123.536 89.6746C121.518 95.7117 116.139 104.025 109.112 114.885Z" fill="black" stroke="black" stroke-width="2" stroke-linecap="round"/>
<path d="M176.636 114.885L176.69 114.968C177.671 115.784 178.152 116.105 178.723 116.348C184.044 116.911 191.753 116.586 197.813 115.937C208.657 115.614 216.304 114.675 218.487 113.418C223.983 110.256 228.325 108.036 229.399 103.946C230.123 101.192 229.722 98.5226 228.175 94.3913C226.713 90.4858 225.562 86.2596 224.695 83.7872C223.643 80.79 222.062 75.7161 211.72 69.858C208.74 68.17 206.146 66.3173 201.5 64.2669C195.275 61.52 190.711 58.6447 186.927 58.4548C180.537 58.1342 174.18 57.289 171.327 59.2757C167.12 62.2049 163.157 67.5165 162.112 73.1369C161.466 76.6125 159.919 82.8165 162.212 89.6746C164.23 95.7117 169.609 104.025 176.636 114.885Z" fill="black" stroke="black" stroke-width="2" stroke-linecap="round"/>
<circle cx="96.5" cy="91.5" r="15" stroke="white"/>
<circle cx="188.5" cy="91.5" r="15" stroke="white"/>
<path d="M143 149V164" stroke="black" stroke-width="5"/>
<path d="M143 164C149.167 171.167 164.9 181.2 178.5 164" stroke="black" stroke-width="4"/>
<path d="M142.5 164C136.333 171.167 120.6 181.2 107 164" stroke="black" stroke-width="4"/>
<circle cx="102" cy="87" r="4.5" fill="#D9D9D9" stroke="white"/>
<circle cx="195" cy="87" r="4.5" fill="#D9D9D9" stroke="white"/>
<ellipse cx="143" cy="133" rx="20" ry="16" fill="black"/>
<ellipse cx="240.283" cy="381.42" rx="36.2102" ry="27.5883" transform="rotate(31.4226 240.283 381.42)" fill="black"/>
<ellipse cx="36.2102" cy="27.5883" rx="36.2102" ry="27.5883" transform="matrix(-0.853345 0.521346 0.521346 0.853345 72.7996 343)" fill="black"/>
<ellipse cx="46.62" cy="25.3406" rx="46.62" ry="25.3406" transform="matrix(-0.862251 0.506481 0.536319 0.844015 80.3962 188)" fill="black"/>
<ellipse cx="46.62" cy="25.3406" rx="46.62" ry="25.3406" transform="matrix(0.862251 0.506481 -0.536319 0.844015 208.604 188)" fill="black"/>
<ellipse cx="142.5" cy="297" rx="79.5" ry="97" fill="white"/>
</svg>
